<svg xmlns="http://www.w3.org/2000/svg" xmlns:xlink="http://www.w3.org/1999/xlink" width="64" height="64"><defs><linearGradient xlink:href="#a" id="b" y1="541.798" y2="499.784" x2="0" gradientUnits="userSpaceOnUse" gradientTransform="matrix(1 0 0 .99967 0 .176)"/><linearGradient id="a"><stop stop-color="#3daee9"/><stop offset="1" stop-color="#6cc1ef"/></linearGradient></defs><path d="M4 6v27c0 .554.446 1 1 1h54c.554 0 1-.446 1-1V11.01l-.002-.01H60v-1H32l-4-4H4z" fill="#147eb8"/><path d="M410.571 499.798l-4 4h-19v1h.002l-.002.012v36.988h58v-42z" fill="url(#b)" transform="translate(-384.571 -483.798)"/><path d="M3 20v1h20l3-5-4 4z" fill="#fff" fill-opacity=".235" fill-rule="evenodd"/><path d="M4 19v1h18l4-4-6 3z" fill-opacity=".235" fill-rule="evenodd"/><path d="M3 57v1h58v-1H3z" fill-opacity=".235"/><path d="M28 6l3 5h29v-1H32z" fill="#fff" fill-opacity=".235" fill-rule="evenodd"/><path d="M48.027 32.5c.39-1.734-.094-3.78-2.5-6-3.914 3.543-2.797 7.227-1.5 9 0 0-.164 1-4 1h-30s-1.832 16 16 16C41.62 52.5 46 40.496 46.855 37.426c.356.047.75.078 1.172.074 2.148-.016 4.93-1.172 6-5.484-2.84-.985-4.66-.54-6 .484z" fill="#03a9f4"/><path d="M10.19 40.5c.735 4.738 3.82 12 15.837 12 12.184 0 17.523-7.328 19.684-12z" fill="#0288d1"/><path d="M27.84 52.438c-.922-.32-5.075-1.09-5.813-6.938-4.21 1.863-7.938 1.375-9.578 1.008 2.16 3.23 6.168 5.992 13.578 5.992.62 0 1.223-.023 1.813-.063z" fill="#81d4fa"/><path d="M28.027 44.5a2 2 0 11-4 0 2 2 0 114 0z" fill="#fff"/><path d="M22.94 46.098c.224.504.02 1.16-.511 1.316-3.3.973-6.144 1.102-8.297 1.102a12.427 12.427 0 01-1.656-1.96c2.586 0 6.71-.122 9.145-.966.523-.184 1.097 0 1.32.508zM10.028 39.5s1.875.125 3-1c1.875 1.688 5.94 1.09 7 0 1.063 1.688 6.938 1.375 8 0 1.25 1.438 6.625 1.75 8 0 .48 1.46 6.82 1.875 8 0 1.063 1.09 5.063 1.938 7.313 0 .56 1.188 2.687 1 2.687 1v1h-44m15 4c0 .55.45 1 1 1s1-.45 1-1-.45-1-1-1-1 .45-1 1z" fill="#37474f"/><path d="M19.027 36.5h-5v-5h5zm10-5h-5v5h5zm10 0h-5v5h5zm-15-5h-5v5h5zm10 0h-5v5h5z" fill="#01579b"/><path d="M24.027 36.5h-5v-5h5zm10-5h-5v5h5zm0-10h-5v5h5zm-5 5h-5v5h5z" fill="#0288d1"/></svg>