<?xml version="1.0" encoding="UTF-8" standalone="no"?>
<!-- Created with Inkscape (http://www.inkscape.org/) -->

<svg
   xmlns:dc="http://purl.org/dc/elements/1.1/"
   xmlns:cc="http://creativecommons.org/ns#"
   xmlns:rdf="http://www.w3.org/1999/02/22-rdf-syntax-ns#"
   xmlns:svg="http://www.w3.org/2000/svg"
   xmlns="http://www.w3.org/2000/svg"
   xmlns:xlink="http://www.w3.org/1999/xlink"
   xmlns:sodipodi="http://sodipodi.sourceforge.net/DTD/sodipodi-0.dtd"
   xmlns:inkscape="http://www.inkscape.org/namespaces/inkscape"
   width="64"
   version="1.1"
   height="64"
   id="svg15"
   sodipodi:docname="folder-bitbucket.svg"
   inkscape:version="0.92.5 (2060ec1f9f, 2020-04-08)">
  <sodipodi:namedview
     pagecolor="#ffffff"
     bordercolor="#666666"
     borderopacity="1"
     objecttolerance="10"
     gridtolerance="10"
     guidetolerance="10"
     inkscape:pageopacity="0"
     inkscape:pageshadow="2"
     inkscape:window-width="1920"
     inkscape:window-height="1051"
     id="namedview17"
     showgrid="false"
     inkscape:zoom="1.84375"
     inkscape:cx="58.955808"
     inkscape:cy="20.744041"
     inkscape:window-x="1920"
     inkscape:window-y="0"
     inkscape:window-maximized="1"
     inkscape:current-layer="layer1" />
  <defs
     id="defs5455">
    <linearGradient
       inkscape:collect="always"
       xlink:href="#linearGradient4172-5"
       id="linearGradient4178"
       y1="541.79797"
       y2="499.78421"
       x2="0"
       gradientUnits="userSpaceOnUse"
       gradientTransform="matrix(1 0 0 0.99967455 0 0.17645)" />
    <linearGradient
       inkscape:collect="always"
       id="linearGradient4172-5">
      <stop
         style="stop-color:#3daee9"
         id="stop4174-6" />
      <stop
         offset="1"
         style="stop-color:#6cc1ef"
         id="stop4176-6" />
    </linearGradient>
    <style
       id="current-color-scheme"
       type="text/css">
      .ColorScheme-Text {
        color:#232629
      }
      </style>
    <style
       id="style886">.cls-1{fill:#253858;}.cls-2{fill:none;}.cls-3{fill:#2684ff;}.cls-4{fill:url(#New_Gradient_Swatch_1);}</style>
    <linearGradient
       gradientUnits="userSpaceOnUse"
       y2="54.48"
       x2="32.99"
       y1="30.27"
       x1="64.01"
       id="New_Gradient_Swatch_1"
       gradientTransform="translate(254.2465,378.03011)">
      <stop
         id="stop888"
         stop-color="#0052cc"
         offset="0.18" />
      <stop
         id="stop890"
         stop-color="#2684ff"
         offset="1" />
    </linearGradient>
  </defs>
  <metadata
     id="metadata5458">
    <rdf:RDF>
      <cc:Work
         rdf:about="">
        <dc:format>image/svg+xml</dc:format>
        <dc:type
           rdf:resource="http://purl.org/dc/dcmitype/StillImage" />
        <dc:title></dc:title>
      </cc:Work>
    </rdf:RDF>
  </metadata>
  <g
     inkscape:label="Capa 1"
     inkscape:groupmode="layer"
     id="layer1"
     transform="matrix(1 0 0 1 -384.57143 -483.798)">
    <path
       inkscape:connector-curvature="0"
       style="fill:#147eb8"
       id="rect4180"
       d="m 388.57143,489.79812 0,5 0,22 c 0,0.55373 0.446,1 1,1 l 54,0 c 0.55399,0 1,-0.44627 1,-1 l 0,-21.99023 c 0,-0.003 -0.002,-0.006 -0.002,-0.01 l 0.002,0 0,-1 -28,0 -4,-4 -24,0 z" />
    <path
       inkscape:connector-curvature="0"
       style="fill:url(#linearGradient4178)"
       id="rect4113"
       d="m 410.57143,499.79812 -4,4 -19,0 0,1 0.002,0 c -5e-5,0.004 -0.002,0.008 -0.002,0.0117 l 0,35.98828 0,1 1,0 56,0 1,0 0,-1 0,-35.98828 0,-0.0117 0,-5 z" />
    <path
       inkscape:connector-curvature="0"
       style="fill:#ffffff;fill-opacity:0.235294;fill-rule:evenodd"
       id="path4224"
       d="m 387.57144,503.79812 0,1 19.99999,0 3,-5 -4,4 z" />
    <path
       inkscape:connector-curvature="0"
       style="fill-opacity:0.235294;fill-rule:evenodd"
       id="path4228"
       d="m 388.57143,502.79812 0,1 18,0 4,-4 -6,3 z" />
    <path
       inkscape:connector-curvature="0"
       style="fill-opacity:0.235294"
       id="path4151-2"
       d="m 387.57143,540.7981 0,1 1,0 56,0 1,0 0,-1 -1,0 -56,0 -1,0 z" />
    <path
       inkscape:connector-curvature="0"
       style="fill:#ffffff;fill-opacity:0.235294;fill-rule:evenodd"
       id="path4196"
       d="m 28,6 3,5 2,0 27,0 0,-1 -27,0 -1,0 z"
       transform="matrix(1 0 0 1 384.57143 483.798)" />
    <g
       id="g975"
       transform="matrix(0.42757631,0,0,0.42757631,294.52768,344.48483)">
      <polygon
         transform="translate(254.2465,378.03011)"
         style="fill:none"
         class="cls-2"
         points="40.9,25.12 21.23,25.12 24.7,43.51 37.75,43.51 "
         id="polygon915" />
      <path
         style="fill:#2684ff"
         inkscape:connector-curvature="0"
         class="cls-3"
         d="m 256.2465,384.29011 a 2,2 0 0 0 -2,2.32 l 8.49,51.54 a 2.72,2.72 0 0 0 2.66,2.27 h 40.73 a 2,2 0 0 0 2,-1.68 l 8.49,-52.12 a 2,2 0 0 0 -2,-2.32 z m 35.75,37.25 h -13 l -3.52,-18.39 h 19.67 z"
         id="path917" />
      <path
         style="fill:url(#New_Gradient_Swatch_1)"
         inkscape:connector-curvature="0"
         class="cls-4"
         d="m 313.9165,403.15011 h -18.77 l -3.15,18.39 h -13 l -15.35,18.22 a 2.71,2.71 0 0 0 1.75,0.66 h 40.74 a 2,2 0 0 0 2,-1.68 z"
         id="path919" />
    </g>
  </g>
</svg>
